<svg width="125" height="36" viewBox="0 0 125 36" fill="none" xmlns="http://www.w3.org/2000/svg">
<path d="M38.8624 11.7248C39.485 11.7248 39.9815 11.8978 40.3519 12.2516C40.7223 12.5976 40.9035 13.0616 40.9035 13.6356C40.9035 14.2176 40.7144 14.6894 40.3361 15.0354C39.9578 15.3892 39.4456 15.5622 38.8073 15.5622H37.499V17.2529H36.1357V11.7248H38.8624ZM38.7048 14.422C38.9727 14.422 39.1776 14.3512 39.3274 14.2097C39.4771 14.0681 39.5559 13.8794 39.5559 13.6435C39.5559 13.4155 39.4771 13.2346 39.3274 13.093C39.1697 12.9515 38.9649 12.8807 38.7048 12.8807H37.499V14.4141H38.7048V14.422Z" fill="#00426D"/>
<path d="M46.16 12.4404C46.7353 12.9987 47.019 13.6828 47.019 14.4928C47.019 15.2949 46.7353 15.979 46.16 16.5373C45.5847 17.0957 44.8912 17.3788 44.0637 17.3788C43.2362 17.3788 42.5348 17.0957 41.9674 16.5373C41.3921 15.979 41.1084 15.2949 41.1084 14.4928C41.1084 13.6828 41.3921 12.9987 41.9674 12.4404C42.5348 11.882 43.2362 11.5989 44.0637 11.5989C44.8912 11.5989 45.5926 11.882 46.16 12.4404ZM45.1985 15.6645C45.5059 15.3578 45.6556 14.9646 45.6556 14.5006C45.6556 14.0288 45.5059 13.6356 45.1985 13.3211C44.8912 13.0065 44.5129 12.8493 44.0637 12.8493C43.6066 12.8493 43.2283 13.0065 42.9289 13.3211C42.6215 13.6356 42.4718 14.0288 42.4718 14.5006C42.4718 14.9646 42.6215 15.3578 42.9289 15.6645C43.2283 15.979 43.6066 16.1284 44.0637 16.1284C44.5129 16.1284 44.8912 15.9712 45.1985 15.6645Z" fill="#00426D"/>
<path d="M51.5583 17.2529H47.4603V11.7248H48.8237V16.0655H51.5583V17.2529Z" fill="#00426D"/>
<path d="M53.3551 11.7248H51.9917V17.2529H53.3551V11.7248Z" fill="#00426D"/>
<path d="M56.8305 12.9122V17.2529H55.4672V12.9122H53.6703V11.7248H58.6273V12.9122H56.8305Z" fill="#00426D"/>
<path d="M63.2691 17.2529H58.9426V11.7248H63.2376V12.8965H60.306V13.9345H63.0012V15.0432H60.306V16.0813H63.2691V17.2529Z" fill="#00426D"/>
<path d="M67.2568 17.2529L65.4442 15.1691H65.1526V17.2529H63.7892V11.7248H65.1526V13.9187H65.3575L67.241 11.7248H68.8802L66.5238 14.4928L69.0457 17.2529H67.2568Z" fill="#00426D"/>
<path d="M74.4756 17.2529H73.3486L70.5431 14.0524V17.2529H69.1718V11.7248H70.3066L73.1201 15.0275V11.7248H74.4756V17.2529Z" fill="#00426D"/>
<path d="M76.4773 11.7248H75.1139V17.2529H76.4773V11.7248Z" fill="#00426D"/>
<path d="M80.5831 17.2529L78.7705 15.1691H78.479V17.2529H77.1077V11.7248H78.479V13.9187H78.676L80.5674 11.7248H82.2066L79.8423 14.4928L82.3721 17.2529H80.5831Z" fill="#00426D"/>
<path d="M88.1881 17.2529H84.0901V11.7248H85.4535V16.0655H88.1881V17.2529Z" fill="#00426D"/>
<path d="M91.3561 11.7248C91.9787 11.7248 92.4752 11.8978 92.8456 12.2516C93.216 12.5976 93.3973 13.0616 93.3973 13.6356C93.3973 14.2176 93.2081 14.6894 92.8299 15.0354C92.4516 15.3892 91.9393 15.5622 91.301 15.5622H89.9928V17.2529H88.6294V11.7248H91.3561ZM91.1985 14.422C91.4665 14.422 91.6714 14.3512 91.8211 14.2097C91.9708 14.0681 92.0496 13.8794 92.0496 13.6435C92.0496 13.4155 91.9708 13.2346 91.8211 13.093C91.6635 12.9515 91.4586 12.8807 91.1985 12.8807H89.9928V14.4141H91.1985V14.422Z" fill="#00426D"/>
<path d="M97.7868 15.5937C97.7868 16.1127 97.5898 16.5452 97.2037 16.8755C96.8175 17.2058 96.321 17.3709 95.7142 17.3709C95.131 17.3709 94.6424 17.2136 94.2484 16.8991C93.8543 16.5845 93.6258 16.1599 93.5706 15.6252L94.8631 15.3893C94.9025 15.6645 94.997 15.8768 95.1389 16.0262C95.2886 16.1756 95.4777 16.2464 95.7221 16.2464C95.9506 16.2464 96.1476 16.1835 96.2974 16.0577C96.4471 15.9319 96.518 15.7746 96.518 15.578C96.518 15.3893 96.455 15.2399 96.321 15.1298C96.187 15.0197 96.0058 14.9646 95.7693 14.9646H95.131V13.9581H95.7142C95.9427 13.9581 96.1319 13.903 96.258 13.7929C96.3919 13.6828 96.455 13.5334 96.455 13.3526C96.455 13.1638 96.384 13.0066 96.2501 12.8886C96.1161 12.7706 95.9348 12.7156 95.7142 12.7156C95.4856 12.7156 95.2886 12.7864 95.1468 12.9358C94.997 13.0852 94.9103 13.3054 94.8867 13.6042L93.6336 13.3683C93.6967 12.8257 93.9095 12.3932 94.2878 12.0708C94.6661 11.7484 95.1389 11.5911 95.7063 11.5911C96.2974 11.5911 96.7781 11.7562 97.1406 12.0786C97.511 12.4011 97.6922 12.8178 97.6922 13.3368C97.6922 13.848 97.4952 14.2176 97.0933 14.4535C97.5583 14.6815 97.7868 15.0668 97.7868 15.5937Z" fill="#00426D"/>
<path d="M99.5994 11.7248H98.2361V17.2529H99.5994V11.7248Z" fill="#00426D"/>
<path d="M24.0623 30.118C23.9362 30.0551 23.7077 30.3382 23.6131 30.4404C23.5816 30.4718 23.5501 30.4954 23.5264 30.5347C23.5028 30.5662 23.4713 30.5977 23.4476 30.6212C23.4082 30.6606 23.3846 30.6842 23.3531 30.7077C23.3215 30.7235 23.2979 30.7392 23.2743 30.7392C23.2033 30.7549 23.1088 30.6999 22.9748 30.5898C22.8487 30.4797 22.7856 30.3853 22.7699 30.3303C22.762 30.2438 22.8329 30.0472 22.9984 29.7405C23.1639 29.4417 23.2349 29.1979 23.2112 29.0092C23.2033 28.9384 23.1797 28.8834 23.1561 28.8519C23.1245 28.8205 23.0851 28.8047 23.03 28.8126C23.0063 28.8126 22.9748 28.8519 22.9354 28.9227C22.9039 28.9935 22.8487 29.0878 22.8014 29.2294C22.7068 29.481 22.628 29.6776 22.565 29.8113C22.5098 29.9371 22.4704 30.0079 22.4468 30.0236C22.3049 30.0787 22.2104 30.1416 22.1631 30.2123C22.1237 30.2831 22.1 30.3932 22.1 30.5505V30.6527C22.0685 30.7628 22.037 30.865 21.9976 30.9594C21.966 31.0538 21.9266 31.1324 21.8872 31.211C21.8794 31.2425 21.8715 31.2582 21.8557 31.2739C21.84 31.2897 21.8163 31.3054 21.7927 31.3054C21.7769 31.3054 21.7769 31.3054 21.769 31.3054C21.7612 31.2975 21.7612 31.2897 21.7533 31.2739C21.7533 31.2503 21.7533 31.2032 21.7611 31.1245C21.769 31.0537 21.7848 30.9437 21.8005 30.8178C21.8242 30.6763 21.8478 30.5426 21.8636 30.4011C21.8794 30.2595 21.903 30.1258 21.9266 29.9843C21.9503 29.8113 21.9739 29.654 22.0133 29.5203C22.0449 29.3788 22.0764 29.2687 22.1079 29.1743C22.2655 28.7418 22.3758 28.388 22.4389 28.0891C22.5019 27.7903 22.5256 27.5701 22.5019 27.4129C22.4783 27.2713 22.4468 27.1691 22.3837 27.0983C22.3286 27.0275 22.2498 27.0039 22.1552 27.0197C22.1394 27.0197 22.1158 27.0275 22.1079 27.0433C22.0921 27.059 22.0764 27.0747 22.0685 27.0983C22.0291 27.1927 21.9976 27.287 21.966 27.3893C21.9345 27.4915 21.9109 27.6016 21.8951 27.7117C21.8951 27.751 21.8794 27.7825 21.8715 27.8139C21.8557 27.8454 21.8478 27.869 21.84 27.8847C21.8242 27.924 21.8006 28.0105 21.769 28.1285C21.7375 28.2464 21.6981 28.3958 21.6587 28.5845C21.6114 28.7811 21.5799 28.9463 21.5563 29.0642C21.5247 29.1901 21.509 29.2766 21.5011 29.3316C21.4617 29.3945 21.4223 29.481 21.375 29.5911C21.3356 29.7012 21.2883 29.8349 21.241 29.9921C21.2016 30.1022 21.1701 30.2045 21.1307 30.2988C21.0834 30.3853 21.0361 30.464 20.9731 30.5269C20.9415 30.5662 20.9179 30.6055 20.8943 30.6291C20.8706 30.6606 20.8549 30.6842 20.847 30.7156C20.8391 30.7471 20.8312 30.7707 20.8233 30.7864C20.8155 30.7942 20.7288 30.8965 20.6972 30.9279C20.6657 30.9672 20.6342 31.0066 20.6027 31.038C20.5554 31.0852 20.516 31.1167 20.4766 31.1403C20.4372 31.1638 20.3899 31.1717 20.3505 31.1796C20.319 31.1796 20.2875 31.1796 20.2559 31.1717C20.2323 31.1638 20.2086 31.156 20.2008 31.1245C20.185 31.1088 20.1614 31.0616 20.122 30.9672C20.0826 30.8729 20.0589 30.81 20.0274 30.7628C20.0116 30.6842 19.988 30.6134 19.9643 30.5426C19.9407 30.464 19.9171 30.4011 19.8855 30.3224C19.854 30.2438 19.8067 30.1887 19.7437 30.1573C19.6806 30.1258 19.6097 30.1101 19.523 30.1258C19.4915 30.1337 19.46 30.1416 19.4363 30.1652C19.4048 30.1887 19.3812 30.2123 19.3654 30.2595C19.3181 30.3617 19.2157 30.4876 19.0738 30.6448C18.932 30.81 18.8374 30.9358 18.7822 31.038L18.7743 31.0773C18.7743 31.0773 18.7271 31.1481 18.6955 31.1638C18.6719 31.1796 18.6483 31.1874 18.6167 31.1953C18.5773 31.2032 18.5379 31.1874 18.4985 31.156C18.4591 31.1245 18.4276 31.0773 18.3882 31.0066C18.333 30.8807 18.27 30.7549 18.199 30.6212C18.1439 30.5505 18.0887 30.5033 18.0336 30.4718C17.9705 30.4404 17.8996 30.4325 17.8287 30.4482C17.7892 30.4482 17.7498 30.464 17.7026 30.4954C17.6553 30.5269 17.6001 30.5583 17.5371 30.5977C17.4898 30.6448 17.4425 30.6842 17.4031 30.7235C17.3637 30.7628 17.3322 30.8021 17.3006 30.8336C17.2849 30.865 17.2691 30.8886 17.2612 30.9043C17.2534 30.9279 17.2376 30.9515 17.2297 30.9594C17.1903 30.9987 17.1588 31.038 17.1273 31.0852C17.0957 31.1245 17.08 31.1717 17.0642 31.211C17.0169 31.2661 16.9775 31.3133 16.9381 31.3604C16.9066 31.4076 16.883 31.4469 16.8672 31.4862C16.8593 31.502 16.8435 31.5177 16.8357 31.5334C16.8278 31.5492 16.8199 31.557 16.8042 31.5649C16.7884 31.5492 16.7726 31.5334 16.7726 31.5177C16.7726 31.502 16.7726 31.4863 16.7726 31.4627C16.7726 31.4391 16.7805 31.4076 16.7884 31.3762C16.8042 31.3368 16.812 31.2897 16.8278 31.2346C16.883 30.9673 16.9145 30.7628 16.9303 30.5977C16.9539 30.4404 16.9539 30.3303 16.946 30.2752C16.9302 30.173 16.8987 30.1022 16.8514 30.0472C16.8042 30 16.7332 29.9843 16.6544 30C16.5677 30.0079 16.4889 30.0393 16.418 30.0865C16.3471 30.1337 16.284 30.2045 16.2289 30.291C16.1658 30.3932 16.1028 30.4718 16.0555 30.5505C16.0082 30.6134 15.9688 30.6763 15.9373 30.7235C15.8663 30.8336 15.8033 30.9279 15.7481 31.0066C15.693 31.0852 15.6536 31.156 15.6141 31.2032C15.5747 31.2582 15.5353 31.3054 15.5038 31.3447C15.4723 31.384 15.4408 31.4155 15.425 31.4391C15.4093 31.4705 15.3935 31.502 15.3777 31.5177C15.362 31.5413 15.3541 31.557 15.3462 31.5806V31.5885C15.3147 31.6121 15.291 31.6435 15.2674 31.675C15.2438 31.7064 15.2122 31.7379 15.1886 31.7615C15.1492 31.8008 15.1177 31.8323 15.094 31.848C15.0704 31.8637 15.0389 31.8794 15.0152 31.8794C14.9443 31.8952 14.8497 31.8401 14.7236 31.73C14.5975 31.6199 14.5266 31.5334 14.5187 31.4705C14.503 31.384 14.5818 31.1874 14.7473 30.8807C14.9128 30.5741 14.9837 30.3303 14.9601 30.1494C14.9522 30.0786 14.9285 30.0236 14.9049 29.9921C14.8734 29.9607 14.834 29.945 14.7788 29.9528C14.7552 29.9607 14.7236 29.9921 14.6842 30.0629C14.6448 30.1337 14.5975 30.2359 14.5424 30.3696C14.4478 30.6291 14.369 30.8178 14.3138 30.9515C14.2508 31.0852 14.2114 31.156 14.1956 31.1638C14.0538 31.2189 13.9592 31.2818 13.9119 31.3526C13.8646 31.4233 13.8489 31.5334 13.8489 31.6907V31.7929C13.8173 31.903 13.7858 32.0053 13.7464 32.0996C13.7149 32.194 13.6755 32.2726 13.6361 32.3513C13.6282 32.3748 13.6203 32.4063 13.6046 32.422C13.5888 32.4378 13.573 32.4456 13.5494 32.4535C13.5415 32.4535 13.5257 32.4535 13.5257 32.4456C13.5179 32.4378 13.51 32.4299 13.51 32.4142C13.51 32.3906 13.51 32.3434 13.5179 32.2648C13.5258 32.194 13.5415 32.0918 13.5652 31.9659C13.5888 31.8323 13.6046 31.6907 13.6282 31.5492C13.644 31.4155 13.6676 31.2739 13.6913 31.1403C13.7228 30.9672 13.7464 30.81 13.7779 30.6684C13.8095 30.5347 13.841 30.4168 13.8725 30.3224C14.0301 29.8978 14.1326 29.5361 14.2035 29.2451C14.2587 28.9463 14.2823 28.7182 14.2587 28.561C14.2429 28.4194 14.2035 28.3172 14.1483 28.2543C14.0932 28.1835 14.0144 28.1599 13.9198 28.1756C13.904 28.1756 13.8883 28.1835 13.8646 28.2071C13.8489 28.2228 13.841 28.2385 13.8252 28.2621C13.7937 28.3486 13.7622 28.4509 13.7228 28.5452C13.6912 28.6475 13.6676 28.7576 13.6518 28.8755C13.6518 28.9148 13.6361 28.9463 13.6282 28.9777C13.6124 29.0013 13.6046 29.0249 13.5967 29.0406C13.5809 29.0878 13.5573 29.1665 13.5257 29.2923C13.4942 29.4102 13.4548 29.5675 13.4154 29.7562C13.3681 29.9528 13.3287 30.1101 13.3051 30.2359C13.2815 30.3617 13.2657 30.4561 13.2578 30.5033C13.2184 30.5662 13.179 30.6527 13.1317 30.7628C13.0923 30.8729 13.045 31.0066 12.9977 31.1638C12.9583 31.2739 12.9189 31.3762 12.8795 31.4705C12.8401 31.557 12.785 31.6357 12.7298 31.6986C12.6983 31.7379 12.6746 31.7693 12.651 31.8008C12.6274 31.8323 12.6116 31.8637 12.6037 31.8873C12.5958 31.9188 12.5879 31.9423 12.5801 31.9581C12.5722 31.9738 12.5643 31.9817 12.5564 31.9895C12.5407 32.0131 12.517 32.0367 12.4855 32.0524C12.4618 32.0682 12.4461 32.0839 12.4303 32.0918C12.3752 32.1389 12.3121 32.1704 12.2412 32.2097C12.1703 32.2412 12.0836 32.2726 11.9969 32.2883C11.9417 32.2805 11.8866 32.2805 11.8472 32.2726C11.7999 32.2648 11.7683 32.249 11.7447 32.2412C11.7132 32.2254 11.6817 32.2018 11.658 32.1704C11.6344 32.1311 11.6186 32.0918 11.6107 32.0446C11.6029 32.0131 11.6107 31.9895 11.6186 31.9581C11.6265 31.9345 11.6423 31.9109 11.6501 31.8873C11.8235 31.6671 11.9575 31.4784 12.052 31.3133C12.1466 31.1481 12.2018 31.0066 12.2176 30.8886L12.2333 30.7707C12.2412 30.7077 12.2491 30.6684 12.2491 30.6448C12.2491 30.6134 12.2569 30.6055 12.2648 30.6291C12.2491 30.5741 12.2333 30.519 12.2176 30.4797C12.2018 30.4247 12.1703 30.3775 12.1545 30.346C12.1309 30.3067 12.1072 30.2831 12.0915 30.2674C12.0678 30.2438 12.0284 30.2281 11.989 30.2202C11.9496 30.2123 11.9023 30.2123 11.8472 30.2202C11.8078 30.2281 11.7683 30.2359 11.7368 30.2517C11.6974 30.2674 11.6659 30.2831 11.6423 30.291C11.6107 30.3224 11.5871 30.346 11.5556 30.3617C11.5319 30.3853 11.5004 30.4089 11.4846 30.4325C11.4374 30.5033 11.3901 30.5819 11.3428 30.6527C11.2955 30.7235 11.2482 30.7942 11.2088 30.8572C11.1615 30.9594 11.13 31.0537 11.0985 31.1403C11.0748 31.2189 11.0512 31.2897 11.0433 31.3447C11.0275 31.3998 11.0197 31.4548 11.0118 31.4941C11.0039 31.5413 10.996 31.5806 10.996 31.6199C10.996 31.6671 10.996 31.7143 10.996 31.7615V31.9109C10.933 31.9738 10.8857 32.0367 10.8463 32.0918C10.8069 32.1468 10.7754 32.2097 10.7517 32.2569C10.6099 32.4142 10.5074 32.5243 10.4286 32.6108C10.3498 32.6894 10.3025 32.7366 10.2868 32.7366C10.2631 32.7444 10.2474 32.7366 10.2316 32.713C10.2158 32.6973 10.208 32.6658 10.2001 32.6344C10.1922 32.5872 10.1922 32.5007 10.1922 32.3827C10.1922 32.2569 10.2001 32.0918 10.208 31.8873C10.2395 31.6278 10.2631 31.3998 10.2868 31.2189C10.3104 31.0302 10.334 30.8729 10.3577 30.7471C10.3656 30.6999 10.3656 30.6606 10.3656 30.6212C10.3735 30.5898 10.3734 30.5505 10.3734 30.5269L10.6099 30.4482C10.6414 30.4404 10.6493 30.3932 10.6572 30.3224C10.6572 30.2438 10.6493 30.1337 10.6256 29.9921C10.6178 29.9528 10.6177 29.9292 10.6099 29.9056C10.602 29.8821 10.5862 29.8742 10.5705 29.8663C10.5547 29.8506 10.5389 29.8427 10.5311 29.8349C10.5232 29.827 10.5153 29.8191 10.5074 29.8113C10.5074 29.7641 10.5153 29.6933 10.5389 29.599C10.5626 29.5125 10.5626 29.4338 10.5626 29.3788C10.5468 29.308 10.5232 29.2608 10.4917 29.2294C10.4601 29.1979 10.4129 29.1822 10.3577 29.1979C10.2552 29.2136 10.1686 29.3395 10.1055 29.5754C10.0503 29.8113 9.97154 29.9371 9.89273 29.9528L9.77452 29.9371C9.73511 29.945 9.70359 29.9607 9.67995 29.9686C9.64843 29.9764 9.6169 29.9843 9.59326 30C9.56961 29.9922 9.53022 29.9921 9.48293 29.9921C9.43565 29.9921 9.38047 30 9.31743 30.0079C9.2859 30.0157 9.25438 30.0315 9.21497 30.0472C9.16769 30.0472 9.12041 30.0393 9.05736 30.0472C9.00219 30.0472 8.93916 30.0551 8.86823 30.0629C8.80518 30.0708 8.7579 30.118 8.73426 30.2045C8.71062 30.2831 8.71062 30.4011 8.73426 30.5583C8.73426 30.5741 8.75001 30.5977 8.76577 30.6055C8.78154 30.6212 8.80517 30.6291 8.83669 30.637C8.85246 30.6448 8.8761 30.6448 8.89974 30.6527C8.92339 30.6527 8.94704 30.6684 8.97068 30.6763C8.98644 30.6763 9.02584 30.6684 9.06525 30.6684C9.11253 30.6606 9.14405 30.6606 9.15981 30.6606L9.60901 30.6055C9.62477 30.6055 9.64843 30.5977 9.67995 30.5819C9.71147 30.5662 9.73511 30.5662 9.75087 30.5583C9.76663 30.5505 9.78239 30.5583 9.79027 30.5662C9.79815 30.5741 9.80603 30.5819 9.80603 30.5977C9.78239 30.6606 9.76663 30.7156 9.75087 30.7628C9.73511 30.81 9.71934 30.8414 9.70358 30.8729C9.58537 31.1796 9.45928 31.4469 9.33319 31.6828C9.19921 31.9188 9.06524 32.1232 8.9155 32.3119C8.89186 32.3513 8.86823 32.3906 8.85247 32.422C8.83671 32.4535 8.82094 32.4771 8.80518 32.5007L8.79729 32.5321C8.76577 32.5636 8.72638 32.6029 8.69486 32.6422C8.66333 32.6815 8.62391 32.713 8.60027 32.7523C8.56087 32.7916 8.51359 32.8309 8.47419 32.8467C8.43479 32.8703 8.38749 32.8781 8.34809 32.886C8.31657 32.8939 8.28505 32.886 8.25353 32.886C8.22988 32.8781 8.20624 32.8624 8.19836 32.8388C8.1826 32.8309 8.15896 32.7759 8.11956 32.6815C8.08015 32.5872 8.0565 32.5243 8.03286 32.4771C8.0171 32.4063 7.98558 32.3277 7.96194 32.2569C7.9383 32.1861 7.90678 32.1153 7.88313 32.0446C7.85161 31.9659 7.80432 31.903 7.74128 31.8716C7.67823 31.8401 7.6073 31.8323 7.52061 31.8401C7.48909 31.8401 7.46546 31.8558 7.43393 31.8716C7.40241 31.8952 7.37876 31.9266 7.363 31.9659C7.31571 32.0603 7.22115 32.194 7.07141 32.3513C6.92956 32.5164 6.83499 32.6422 6.77983 32.7366V32.7759L6.76407 32.7995C6.71678 32.8545 6.67737 32.9017 6.63797 32.9332C6.59857 32.9725 6.56705 33.0039 6.5434 33.0275C6.44095 33.0747 6.37003 33.114 6.30698 33.1376C6.24394 33.1691 6.21241 33.1769 6.20453 33.1769C6.02327 33.2005 5.88142 33.1612 5.77109 33.059C5.66075 32.9568 5.58983 32.7838 5.55831 32.5557C5.62136 32.4299 5.67652 32.2962 5.73168 32.1547C5.77109 32.0682 5.81049 31.9895 5.84989 31.9266C5.8893 31.8558 5.91295 31.8087 5.93659 31.7615C5.95235 31.7064 5.96811 31.6671 5.97599 31.6278C5.98387 31.5885 5.99963 31.557 6.00751 31.5334C6.03115 31.4784 6.05479 31.4312 6.07843 31.3919C6.09419 31.3526 6.11784 31.3211 6.12572 31.2897C6.14936 31.2346 6.16513 31.1796 6.17301 31.1403C6.18089 31.1009 6.18876 31.0616 6.19664 31.0302C6.2124 30.983 6.23606 30.9437 6.25182 30.9043C6.26758 30.865 6.28333 30.8336 6.29909 30.81C6.32273 30.7156 6.33849 30.6212 6.35425 30.5347C6.36213 30.4561 6.37791 30.3853 6.38579 30.3224C6.40943 30.2517 6.42518 30.1966 6.43306 30.1416C6.44094 30.0865 6.45671 30.0472 6.45671 30.0157L6.44884 29.9686C6.45672 29.945 6.45671 29.9214 6.45671 29.9056C6.44883 29.8506 6.4567 29.7798 6.47247 29.7012C6.48823 29.6226 6.48824 29.5675 6.48824 29.5203C6.48824 29.481 6.48036 29.4181 6.48824 29.3395C6.48824 29.2608 6.48823 29.1979 6.48035 29.1586C6.45671 29.0092 6.42519 28.9148 6.36214 28.8676C6.2991 28.8205 6.20453 28.8047 6.07056 28.8283C5.99963 28.8362 5.92871 28.8991 5.85778 29.0013C5.78685 29.1036 5.70017 29.2608 5.62136 29.4653C5.55831 29.6147 5.50314 29.7641 5.45585 29.9056C5.40857 30.0472 5.37706 30.1887 5.34553 30.3146C5.32189 30.3932 5.30612 30.464 5.28248 30.519C5.26672 30.5819 5.25096 30.637 5.22732 30.6763C5.18792 30.9043 5.14851 31.1167 5.12487 31.3133C5.09334 31.5098 5.06971 31.6907 5.06971 31.8558L5.10122 31.9188C5.08546 31.9502 5.07757 32.0288 5.07757 32.1547C5.06969 32.2805 5.07757 32.3748 5.07757 32.4299C5.09334 32.4456 5.09334 32.4692 5.10122 32.5007C5.10122 32.5243 5.10911 32.54 5.10911 32.5557C5.10911 32.5636 5.10121 32.5793 5.09333 32.5872L4.88844 32.8309C4.85692 32.8703 4.83327 32.9174 4.81751 32.9568C4.80174 32.9961 4.78599 33.0275 4.77023 33.0511C4.74659 33.0747 4.72294 33.0983 4.70718 33.114C4.69142 33.1298 4.66778 33.1376 4.65202 33.1376C4.63626 33.1376 4.62049 33.1376 4.60473 33.1219C4.58897 33.114 4.57321 33.0904 4.56533 33.0669C4.58109 33.0354 4.60473 33.0039 4.62838 32.9489C4.65202 32.8939 4.66779 32.8388 4.67567 32.7602C4.69143 32.6894 4.69929 32.6265 4.69929 32.5793C4.70717 32.5164 4.69929 32.4771 4.69929 32.4299C4.66777 32.2176 4.60472 32.0682 4.50227 31.9738C4.39983 31.8794 4.26586 31.848 4.09248 31.8716C4.07672 31.8716 4.03732 31.8873 3.98216 31.9109C3.92699 31.9423 3.8403 31.9817 3.74573 32.0367L3.7142 32.0053C3.73784 31.9502 3.75362 31.8873 3.76938 31.8323C3.7615 31.8087 3.74572 31.7929 3.7142 31.7851C3.69056 31.7772 3.65115 31.7772 3.59599 31.7851C3.5487 31.7929 3.50931 31.8087 3.46991 31.8323C3.4305 31.8558 3.39897 31.8873 3.35956 31.9266C3.33592 31.9659 3.3044 32.0053 3.28076 32.0446C3.25711 32.0839 3.2256 32.1232 3.19408 32.1625C3.17044 32.194 3.13892 32.2254 3.11527 32.2569C3.08375 32.2884 3.05222 32.3198 3.02858 32.3591C2.98917 32.3984 2.96554 32.4378 2.9419 32.4771C2.91826 32.5164 2.90249 32.5479 2.89461 32.5793C2.88673 32.5872 2.87885 32.595 2.86309 32.6108C2.87885 32.5714 2.88673 32.54 2.89461 32.5007C2.94189 32.3119 2.94977 32.0839 2.91037 31.8244C2.88672 31.6828 2.8552 31.5492 2.8158 31.4391C2.7764 31.3211 2.72912 31.211 2.66607 31.1167C2.61879 31.0302 2.54786 30.9437 2.46905 30.8572C2.38237 30.7628 2.2799 30.6684 2.16169 30.5583C2.14593 30.5426 2.12229 30.5269 2.10653 30.5033C2.09077 30.4876 2.07501 30.4797 2.06713 30.4718C1.98832 30.4168 1.91739 30.3696 1.87011 30.3303C1.82282 30.291 1.7913 30.2674 1.77554 30.2438C1.65733 30.1887 1.57853 30.1416 1.52336 30.0944C1.4682 30.0472 1.34209 29.9921 1.13719 29.9292C1.06627 29.9056 0.995344 29.8899 0.924417 29.8663C0.85349 29.8427 0.790437 29.827 0.71951 29.8034L0.609187 29.8192C0.585545 29.8034 0.538252 29.7877 0.483087 29.772C0.41216 29.7798 0.309726 29.8742 0.183633 30.0472C0.0496605 30.2202 -0.0133895 30.3382 0.00237206 30.4089C0.00237206 30.4247 0.018122 30.4561 0.0496451 30.4954C0.0811681 30.5347 0.136345 30.5898 0.199391 30.6606C0.262437 30.7392 0.317603 30.8021 0.357006 30.8572C0.39641 30.9043 0.427922 30.9515 0.443683 30.983L0.39641 32.1389L0.435814 32.2648C0.427933 32.3434 0.427937 32.422 0.420056 32.4849C0.420056 32.5478 0.412168 32.6029 0.412168 32.6344C0.420049 32.768 0.420045 32.8703 0.427925 32.941C0.427925 33.0118 0.427925 33.059 0.427925 33.0747C0.420045 33.2163 0.420049 33.3578 0.412168 33.4994C0.412168 33.5229 0.427922 33.5623 0.443683 33.6094C0.459445 33.6566 0.467337 33.696 0.475218 33.7195C0.490979 33.8139 0.43581 33.8925 0.33336 33.9633C0.22303 34.0341 0.175745 34.0813 0.175745 34.1127C0.175745 34.1363 0.191506 34.1599 0.215149 34.1835C0.238791 34.1992 0.270318 34.215 0.317603 34.2307C0.349126 34.2464 0.380645 34.2621 0.412168 34.27C0.443691 34.2857 0.47521 34.2936 0.506733 34.3015L0.554025 34.5059C0.538264 34.6239 0.530372 34.7261 0.522491 34.8047C0.51461 34.8834 0.51461 34.9541 0.522491 35.0013C0.546133 35.1665 0.57766 35.5046 0.624945 35.5832C0.672229 35.6619 0.735287 35.6933 0.814094 35.6855C0.853498 35.6776 0.892902 35.654 0.932306 35.6147C0.97171 35.5754 1.01111 35.5203 1.04263 35.4496C1.07415 35.3866 1.09779 35.3395 1.12144 35.2923C1.14508 35.2451 1.16084 34.9699 1.1766 34.9227C1.11355 34.8676 1.07414 34.8126 1.03474 34.7654C1.00322 34.7182 0.979579 34.671 0.979579 34.6317C0.971698 34.5216 0.963813 34.4037 0.955933 34.2857C0.940171 34.1049 0.940171 34.0105 0.955933 33.9948C0.971694 33.9869 1.01111 33.9712 1.08203 33.9633C1.10567 33.9633 1.13719 33.9476 1.1766 33.9161C1.216 33.8925 1.27118 33.8611 1.32634 33.8218C1.53912 33.6959 1.73613 33.5859 1.92527 33.4836C2.01984 33.4286 2.09865 33.3814 2.16958 33.3421C2.05137 33.5229 2.34295 33.633 2.61089 33.4129C2.65818 33.3735 2.67394 33.3499 2.6897 33.3499C2.71334 33.3499 2.72911 33.3499 2.73699 33.3578C2.74487 33.3657 2.76064 33.3814 2.76064 33.3971C2.76064 33.4129 2.75276 33.4758 2.74488 33.5701C2.72912 33.6645 2.72911 33.7431 2.73699 33.806C2.75275 33.9476 2.82368 34.0577 2.94977 34.1599C3.07586 34.2621 3.20196 34.2936 3.33594 34.2779C3.35958 34.27 3.38322 34.2621 3.41475 34.2543C3.45415 34.2385 3.4699 34.2307 3.48566 34.2307C3.52507 34.2228 3.56448 34.215 3.61176 34.1914C3.65905 34.1678 3.70633 34.1363 3.76938 34.097C3.86395 34.042 3.95062 33.979 4.02943 33.9004C4.10036 33.8218 4.16341 33.7431 4.21069 33.6566C4.23433 33.7038 4.27374 33.7353 4.31314 33.7589C4.35255 33.7746 4.39984 33.7903 4.455 33.7746C4.50229 33.7667 4.54958 33.751 4.59686 33.7274C4.63626 33.6959 4.69141 33.6566 4.7387 33.6094C4.7781 33.5701 4.81752 33.5308 4.84904 33.4915C4.88844 33.4522 4.91996 33.405 4.95936 33.3657C5.01453 33.3028 5.05394 33.2556 5.08546 33.2005C5.11699 33.1534 5.14851 33.114 5.18003 33.0747C5.20367 33.0904 5.21943 33.1062 5.23519 33.1219C5.25095 33.1376 5.25884 33.1534 5.26672 33.1769C5.32977 33.3814 5.40857 33.5387 5.51102 33.6252C5.61347 33.7195 5.73168 33.7589 5.86565 33.7431C5.90505 33.7353 5.9681 33.7353 6.04691 33.7353C6.12572 33.7274 6.18088 33.7274 6.22028 33.7195C6.29121 33.7117 6.36214 33.6802 6.44095 33.6409C6.51188 33.6016 6.58281 33.5387 6.64586 33.4679C6.70102 33.405 6.75618 33.3421 6.81134 33.2792C6.86651 33.2084 6.92168 33.1534 6.97685 33.0826H6.96896C7.04776 32.9725 7.11082 32.886 7.17386 32.8231C7.23691 32.7602 7.27632 32.7287 7.31572 32.7287C7.33148 32.7287 7.34723 32.7366 7.37875 32.7602C7.4024 32.7838 7.43393 32.8231 7.46545 32.8703C7.49697 32.9017 7.52061 32.9253 7.54426 32.9568C7.5679 32.9804 7.58366 33.0039 7.59942 33.0197C7.70975 33.232 7.79645 33.3657 7.86738 33.405C7.9383 33.4443 8.08016 33.4522 8.30082 33.4207C8.34022 33.4129 8.3875 33.3971 8.45054 33.3499C8.51359 33.3028 8.59239 33.2399 8.67908 33.1612C8.75789 33.0826 8.82882 33.0197 8.88399 32.9646C8.93915 32.9096 8.98643 32.8545 9.01796 32.8152C9.03372 32.7759 9.05737 32.7444 9.06525 32.7209C9.08101 32.6973 9.08888 32.6815 9.09676 32.6658C9.20709 32.5243 9.30955 32.3906 9.41988 32.2648C9.49081 32.1861 9.54597 32.1075 9.59326 32.0367C9.64054 31.9659 9.67994 31.903 9.70358 31.8401L9.73511 31.8165C9.75875 31.8244 9.76663 31.8323 9.77452 31.848C9.75087 31.9188 9.73512 31.9817 9.71935 32.0367C9.71935 32.1311 9.71935 32.2254 9.71147 32.3198C9.71147 32.3749 9.71147 32.422 9.71147 32.4692C9.71147 32.5085 9.71147 32.54 9.71147 32.5636C9.70359 32.5793 9.70359 32.595 9.69571 32.6186C9.67995 32.6815 9.67995 32.768 9.67995 32.8703C9.68783 32.9725 9.69571 33.0904 9.71935 33.2241C9.73512 33.3499 9.77452 33.4364 9.83757 33.4915C9.89273 33.5465 9.97941 33.5701 10.0819 33.5544C10.1291 33.5465 10.1764 33.5308 10.2316 33.4915C10.2789 33.46 10.334 33.405 10.3813 33.3342C10.4129 33.287 10.4523 33.232 10.4838 33.1769C10.5153 33.1219 10.5547 33.0669 10.5941 33.0197C10.6335 32.9725 10.665 32.9253 10.6887 32.8939C10.7202 32.8545 10.7438 32.8231 10.7675 32.7916C10.8226 32.7444 10.8699 32.6973 10.9093 32.6579C10.9487 32.6186 10.9724 32.5872 10.996 32.5478V32.54C11.0197 32.5085 11.0433 32.4771 11.0591 32.4535C11.0827 32.4299 11.0985 32.422 11.1221 32.422C11.1458 32.4142 11.1694 32.4299 11.1931 32.4535C11.2167 32.4771 11.2403 32.5085 11.2719 32.5557C11.3113 32.6186 11.3349 32.6658 11.3664 32.713C11.398 32.7602 11.4216 32.7838 11.4531 32.8074C11.5004 32.8467 11.5634 32.8781 11.6423 32.8939C11.7132 32.9096 11.792 32.9096 11.8787 32.9017C11.9417 32.8939 12.0048 32.8781 12.052 32.8624C12.0993 32.8467 12.1387 32.8231 12.1703 32.7995C12.2648 32.7838 12.3594 32.7366 12.4618 32.6579C12.5643 32.5714 12.6746 32.4613 12.7929 32.3041C12.8244 32.249 12.8401 32.2097 12.848 32.194C12.8559 32.1704 12.8638 32.1625 12.8717 32.1547C12.9268 32.0682 12.9741 31.9974 13.0135 31.9423C13.0529 31.8873 13.0844 31.8323 13.116 31.7851L13.1475 31.8165C13.1554 31.8558 13.1554 31.8952 13.1475 31.9502C13.1475 32.0053 13.1396 32.0603 13.1317 32.1311C13.1081 32.2805 13.0923 32.4142 13.0923 32.5478C13.0923 32.6737 13.1002 32.7995 13.116 32.9096C13.1317 33.0197 13.1632 33.0983 13.2263 33.1534C13.2736 33.2005 13.3524 33.2163 13.4469 33.2084C13.51 33.2005 13.5573 33.1691 13.5888 33.1219C13.6282 33.0669 13.6597 33.0197 13.6834 32.9725C13.707 32.9332 13.7385 32.9017 13.7622 32.8781C13.7858 32.8545 13.8016 32.8309 13.8095 32.8074C13.8489 32.7523 13.8804 32.6973 13.9119 32.6344C13.9434 32.5793 13.9828 32.5243 14.0144 32.4692C14.0695 32.3827 14.1326 32.2883 14.2114 32.194C14.2193 32.194 14.3217 32.249 14.5108 32.3749C14.7 32.4928 14.834 32.5479 14.9049 32.54C14.9758 32.5321 15.0389 32.5085 15.1019 32.4692C15.1649 32.4299 15.228 32.367 15.291 32.2883C15.3462 32.2333 15.3935 32.1704 15.4408 32.1075C15.4881 32.0446 15.5432 31.9817 15.5905 31.9188L15.5826 31.9109C15.5984 31.8873 15.6141 31.8637 15.6141 31.848C15.622 31.8323 15.6299 31.8165 15.6299 31.8008C15.6693 31.7536 15.7008 31.7222 15.7245 31.6828C15.7481 31.6514 15.7718 31.6199 15.7954 31.6042C15.8112 31.5885 15.8348 31.5649 15.8663 31.5177C15.9058 31.4705 15.9451 31.4076 16.0082 31.329C16.0555 31.2582 16.0949 31.211 16.1264 31.1796C16.1579 31.1403 16.1895 31.1245 16.2131 31.1245C16.2367 31.1245 16.2604 31.1245 16.2683 31.1324C16.284 31.1402 16.2919 31.1481 16.2919 31.1717C16.2998 31.1874 16.2998 31.2032 16.2919 31.2267C16.2919 31.2503 16.284 31.2818 16.284 31.3133C16.2761 31.3447 16.2683 31.3762 16.2683 31.3919C16.2604 31.4155 16.2604 31.4312 16.2604 31.4391C16.2289 31.6435 16.2052 31.8323 16.1737 31.9817C16.15 32.1311 16.1264 32.2648 16.1028 32.367C16.1185 32.4299 16.1343 32.5007 16.1579 32.5636C16.1737 32.6265 16.2288 32.6501 16.3234 32.6422C16.3707 32.6344 16.418 32.6265 16.4495 32.6108C16.4889 32.595 16.5204 32.5714 16.5441 32.54C16.5677 32.5085 16.5992 32.4771 16.6229 32.4456C16.6465 32.4063 16.6781 32.3748 16.7017 32.3434C16.8041 32.2018 16.8908 32.0839 16.9539 31.9817C17.0248 31.8794 17.0721 31.8008 17.0957 31.7379C17.1036 31.7064 17.1351 31.675 17.1745 31.6435C17.2218 31.6121 17.2849 31.5413 17.3795 31.4391C17.4267 31.384 17.4661 31.3447 17.5055 31.3054C17.5449 31.2739 17.5843 31.2425 17.6316 31.2267L17.6631 31.2346C17.7262 31.2975 17.7814 31.3447 17.8287 31.3919C17.8759 31.4391 17.9153 31.4705 17.9548 31.502C18.002 31.5728 18.0414 31.6278 18.0808 31.6828C18.1124 31.7222 18.1439 31.7536 18.1675 31.7693C18.2069 31.8165 18.2542 31.8401 18.3094 31.8637C18.3646 31.8794 18.4118 31.8794 18.4749 31.8716C18.5222 31.8637 18.5694 31.848 18.6088 31.8244C18.6561 31.8008 18.7034 31.7536 18.7507 31.6986C18.7901 31.6593 18.8216 31.6199 18.861 31.5806C18.9004 31.5413 18.932 31.502 18.9714 31.4627C19.0502 31.3526 19.1132 31.2582 19.1763 31.2032C19.2314 31.1402 19.2787 31.1088 19.3181 31.1009C19.3339 31.1009 19.3496 31.1088 19.3812 31.1324C19.4048 31.156 19.4363 31.1953 19.4757 31.2425C19.4994 31.2739 19.5309 31.2975 19.5545 31.329C19.5782 31.3526 19.594 31.3683 19.6097 31.3919C19.72 31.6121 19.8067 31.7379 19.8776 31.7772C19.9486 31.8165 20.0904 31.8244 20.3111 31.7929C20.3426 31.7851 20.3978 31.7615 20.4608 31.7143C20.5239 31.6671 20.6027 31.6121 20.6894 31.5256C20.7682 31.4469 20.8391 31.384 20.8943 31.329C20.9494 31.2739 20.9967 31.2189 21.0282 31.1796C21.0598 31.1245 21.0755 31.0852 21.0834 31.0695C21.0913 31.0537 21.0992 31.038 21.1071 31.0223C21.1543 30.9358 21.2095 30.8729 21.2489 30.81C21.2883 30.7549 21.3277 30.6999 21.3513 30.6606L21.375 30.692C21.3829 30.7235 21.3829 30.7707 21.375 30.8257C21.375 30.8807 21.3671 30.9358 21.3592 31.0066C21.3356 31.1481 21.3198 31.2897 21.3198 31.4233C21.3198 31.5492 21.3198 31.675 21.3435 31.7929C21.3592 31.903 21.3907 31.9817 21.4459 32.0288C21.5011 32.076 21.572 32.0918 21.6745 32.076C21.7375 32.0682 21.7848 32.0446 21.8163 31.9895C21.8478 31.9423 21.8872 31.8873 21.9109 31.8401C21.9345 31.8008 21.9661 31.7693 21.9897 31.7458C22.0133 31.7222 22.0291 31.6986 22.037 31.675C22.0764 31.6199 22.1079 31.5649 22.1394 31.5098C22.1709 31.4548 22.2025 31.3998 22.2419 31.3447C22.297 31.2503 22.3601 31.1638 22.4389 31.0695C22.4547 31.0616 22.5492 31.1245 22.7384 31.2503C22.9275 31.3762 23.0536 31.4312 23.1324 31.4233C23.2033 31.4076 23.2664 31.384 23.3294 31.3447C23.3925 31.3054 23.4555 31.2503 23.5186 31.1717C23.5737 31.1088 23.621 31.0459 23.6683 30.983C23.7156 30.9201 23.7707 30.8572 23.818 30.7942C23.8023 30.7471 24.1963 30.1809 24.0623 30.118ZM2.05924 32.8703C2.0356 32.9017 1.98831 32.941 1.94103 32.9961C1.90162 33.0354 1.87012 33.0669 1.83859 33.0904C1.80707 33.1219 1.77554 33.1455 1.7519 33.1612C1.68885 33.2005 1.63369 33.2399 1.57852 33.2713C1.52336 33.3028 1.4682 33.3499 1.40515 33.3893C1.31846 33.4522 1.23965 33.4994 1.18449 33.5308C1.12932 33.5623 1.08203 33.578 1.05839 33.578C1.04262 33.578 1.02687 33.578 1.01111 33.5623C0.995352 33.5544 0.987467 33.5308 0.987467 33.5072C0.971706 33.405 0.971698 33.2634 0.979579 33.0904C0.98746 32.9174 1.00322 32.7051 1.03474 32.4535L0.987467 32.3119C1.01111 32.2412 1.04264 32.0367 1.08992 31.6986C1.13721 31.3604 1.15296 31.1717 1.14508 31.1245C1.12932 30.983 0.955933 30.7942 0.640702 30.5426C0.640702 30.5269 0.64071 30.5112 0.648591 30.5112C0.656471 30.5033 0.664344 30.4954 0.680106 30.4954C0.766794 30.519 0.837725 30.5505 0.900771 30.5662C0.971698 30.5898 1.02686 30.5977 1.07414 30.6134C1.10567 30.637 1.12932 30.6606 1.16084 30.6763C1.18448 30.6999 1.216 30.7156 1.23176 30.7235C1.4209 30.8414 1.57064 30.9515 1.68885 31.0459C1.79918 31.1402 1.88587 31.2267 1.93316 31.2897C1.94892 31.3211 1.97257 31.3526 1.99621 31.3762C2.01197 31.3919 2.03561 31.4155 2.05137 31.4233C2.06713 31.4391 2.08288 31.4548 2.09864 31.4705C2.1144 31.4784 2.12229 31.4941 2.12229 31.5098L2.14594 31.5963C2.2011 31.6828 2.24051 31.7772 2.27204 31.8637C2.30356 31.9502 2.32719 32.0367 2.34295 32.1232C2.35872 32.2726 2.35872 32.3984 2.31144 32.5164C2.27204 32.6265 2.20899 32.7287 2.11442 32.8152C2.10654 32.8231 2.08288 32.8388 2.05924 32.8703ZM4.19493 32.9725C4.19493 33.0197 4.18706 33.0669 4.17918 33.0983C4.17129 33.1298 4.16341 33.1534 4.13977 33.1691C4.11613 33.2163 4.0846 33.2634 4.05308 33.3106C3.99003 33.4443 3.91122 33.5465 3.83241 33.6173C3.74572 33.6881 3.65116 33.7353 3.54083 33.751C3.4699 33.7589 3.42261 33.751 3.38321 33.7195C3.34381 33.6881 3.32017 33.6409 3.31229 33.578C3.30441 33.5387 3.30441 33.4994 3.31229 33.4443C3.32017 33.3893 3.32805 33.3264 3.34381 33.2477C3.35957 33.1612 3.37533 33.0904 3.39897 33.0433C3.42261 32.9961 3.43838 32.9725 3.46202 32.9646C3.50142 32.9489 3.53294 32.941 3.55658 32.9174C3.58023 32.9017 3.61176 32.8703 3.62752 32.8388C3.65905 32.768 3.69056 32.7051 3.7142 32.6422C3.72996 32.6029 3.75362 32.5714 3.76938 32.5478C3.79302 32.5243 3.80089 32.5085 3.81665 32.5007C3.89546 32.5007 3.95063 32.5007 3.99791 32.5007C4.03732 32.5085 4.06884 32.5085 4.07672 32.5164C4.10036 32.5243 4.11613 32.5478 4.13977 32.5872C4.17129 32.6265 4.19493 32.6815 4.22645 32.7444L4.19493 32.9725ZM5.53466 31.7851C5.52678 31.7536 5.53467 31.6907 5.54255 31.6042C5.55831 31.5177 5.57406 31.4076 5.60558 31.2661C5.6371 31.1717 5.66075 31.0852 5.69228 31.0066C5.70804 30.9437 5.73169 30.8886 5.73957 30.8414C5.74745 30.8021 5.75532 30.7707 5.74744 30.7549C5.73956 30.6527 5.75532 30.5347 5.8026 30.4089C5.85777 30.2831 5.93659 30.1573 6.0548 30.0079L6.07843 30.0157C6.07843 30.0629 6.07056 30.1101 6.07056 30.1573C6.06268 30.2045 6.06268 30.2517 6.07056 30.2988C6.07056 30.3539 6.04692 30.5033 5.99175 30.7313C5.93659 30.9594 5.89717 31.1009 5.86565 31.156C5.83413 31.2346 5.80262 31.3133 5.77897 31.3762C5.74745 31.4391 5.7238 31.4863 5.71592 31.5334C5.6844 31.6199 5.66076 31.6828 5.63712 31.73C5.61347 31.7772 5.58982 31.8008 5.56618 31.8087L5.53466 31.7851ZM11.5871 31.4391C11.5713 31.4705 11.5556 31.4862 11.5319 31.4862C11.5083 31.4941 11.5004 31.4862 11.4925 31.4862C11.4846 31.4784 11.4767 31.4705 11.4767 31.4548C11.4689 31.3919 11.5004 31.2818 11.5713 31.1403C11.6423 30.9908 11.6974 30.9122 11.7526 30.9043C11.7683 30.9043 11.7841 30.9043 11.792 30.9201C11.7999 30.9358 11.8078 30.9515 11.8078 30.9672C11.8156 30.9987 11.8077 31.038 11.7999 31.0695C11.7841 31.1088 11.7762 31.1403 11.7447 31.1796C11.7289 31.211 11.7053 31.2346 11.6895 31.2661C11.6659 31.2975 11.6501 31.329 11.6265 31.3526C11.6186 31.384 11.6029 31.4076 11.5871 31.4391Z" fill="#00426D"/>
<path fill-rule="evenodd" clip-rule="evenodd" d="M22.1867 3.08257C22.297 2.82307 22.3522 2.53211 22.3522 2.23329C22.3522 0.99869 21.3434 0 20.1062 0C18.8689 0 17.868 0.99869 17.868 2.23329C17.868 2.27261 17.868 2.31193 17.8759 2.35125H4.29736C1.93314 2.35125 0.00234985 4.27785 0.00234985 6.6291V22.0734C0.00234985 24.4246 1.93314 26.3512 4.29736 26.3512H19.7988C22.1552 26.3512 24.0938 24.4246 24.0938 22.0734V6.63696C24.0938 5.15859 23.3294 3.85321 22.1867 3.08257Z" fill="#00426D"/>
<path fill-rule="evenodd" clip-rule="evenodd" d="M21.4223 9.5701V14.3512V19.1402V23.9213H18.798V21.3578L18.6404 21.8296L18.4434 22.2936L18.2148 22.7261L17.9548 23.1192L17.8129 23.2922L17.6632 23.4495L17.3401 23.7012L17.1667 23.7955L16.9854 23.8742L16.8042 23.9135L16.615 23.9213H13.9434L13.3524 19.6671L14.6842 19.6985L15.094 19.6907L15.5038 19.6671L15.9136 19.5806L16.1107 19.5177L16.284 19.4312L16.3628 19.3368L16.4259 19.2189L16.481 19.1088L16.5204 18.9829L16.5441 18.8414L16.552 18.692L16.5441 18.3774L16.4889 18.0472L16.3944 17.709L16.284 17.363L16.1501 17.0327L14.6133 13.9816L15.8191 11.6618L15.9846 11.2844L16.1185 10.9541L16.2052 10.6553L16.2683 10.3879L16.284 10.1441L16.2762 9.93969L16.2446 9.75883L16.1816 9.60155L16.0949 9.46787L15.9846 9.35778L15.8506 9.27128L15.693 9.2005L15.5275 9.14546L15.3462 9.114L15.1413 9.09041H14.9285H13.8646L13.904 9.79028L13.9119 10.498L13.8883 11.2057L13.8252 11.9135L13.7464 12.6055L13.6361 13.2818L13.5021 13.9187L13.4233 14.2175L13.3524 14.5085L13.2578 14.8152L13.1396 15.1219L12.8717 15.7667L12.7141 16.1048L12.5485 16.443L12.1545 17.1271L11.9496 17.481L11.729 17.827L11.2482 18.5268L10.7439 19.211L10.4759 19.5491L10.2158 19.8873V23.9213H8.08016V21.6409L7.61518 23.9213H2.67395V19.1402V14.3512V9.5701V4.78897H5.29825L5.28249 12.2359L5.2746 19.6985H8.08016V14.7759V9.86105H10.2158V14.8702L10.4286 14.5085L10.6808 14.0681L10.933 13.5806L11.1773 13.0537L11.398 12.5033L11.5792 11.9449L11.658 11.6618L11.7053 11.3945L11.7368 11.1192L11.7526 10.8676L11.729 10.2857L11.658 9.86892L11.595 9.72737L11.5319 9.60942L11.4531 9.51505L11.3664 9.45214L11.1537 9.38923L10.9015 9.3735L10.2789 9.3971H7.48122L8.08016 4.81256H10.8778L11.1458 4.82043L11.4137 4.86761L11.6423 4.93052L11.8787 5.02488L12.0915 5.14284L12.2885 5.27652L12.4855 5.43379L12.651 5.61466L12.8244 5.80339L12.9662 6.03143L13.2263 6.50326L13.3445 6.77062L13.4469 7.04585L13.5415 7.32894L13.6125 7.63563L14.0065 4.78897H16.1895L16.4495 4.8047L16.6938 4.86761L16.9145 4.95411L17.1351 5.0642L17.3479 5.22147L17.5371 5.40234L17.7183 5.61466L17.876 5.85057L18.0336 6.10221L18.1675 6.37744L18.2779 6.68412L18.3724 6.99867L18.4512 7.32894L18.5064 7.67495L18.5458 8.03668L18.5537 8.40627L18.5379 9.24768L18.4828 9.98687L18.3882 10.6632L18.333 10.9934L18.27 11.3001L18.1124 11.9135L17.9311 12.5268L17.4898 13.8479L17.7735 14.5085L18.1202 15.3656L18.4828 16.3801L18.6561 16.9305L18.798 17.5046V11.1428V4.78897H21.4223V9.5701Z" fill="white"/>
<path fill-rule="evenodd" clip-rule="evenodd" d="M20.1062 4.13632C19.058 4.13632 18.199 3.27918 18.199 2.23331C18.199 1.18744 19.058 0.330292 20.1062 0.330292C21.1543 0.330292 22.0133 1.18744 22.0133 2.23331C22.0212 3.27918 21.1622 4.13632 20.1062 4.13632Z" fill="#ED1C24"/>
<path d="M7.86736 29.7719C7.93041 29.7641 7.96981 29.7719 8.00133 29.7876C8.03285 29.8112 8.04861 29.8427 8.05649 29.882C8.04861 29.9528 8.04861 30.0078 8.04073 30.055C8.03285 30.1415 8.01708 30.2201 8.0092 30.2752C7.99344 30.3302 7.98557 30.3696 7.98557 30.3931C7.96981 30.4482 7.94616 30.4954 7.92252 30.5426C7.891 30.5897 7.8516 30.6291 7.80431 30.6684C7.75703 30.7077 7.70973 30.747 7.67821 30.7627C7.64669 30.7785 7.62305 30.7942 7.60729 30.7942C7.56789 30.7942 7.52848 30.7942 7.48908 30.7942C7.45756 30.7942 7.41814 30.8021 7.37874 30.8099C7.34722 30.7942 7.3157 30.7627 7.29206 30.7234C7.26054 30.6762 7.25266 30.6133 7.2369 30.5347C7.22902 30.4639 7.26054 30.3696 7.33147 30.2516C7.40239 30.1336 7.47331 30.0629 7.53635 30.0471C7.56788 29.9921 7.60728 29.9292 7.65456 29.8584C7.67821 29.8427 7.70186 29.8191 7.74126 29.8034C7.78066 29.7876 7.82008 29.7719 7.86736 29.7719Z" fill="#ED1C24"/>
<path d="M19.8619 28.1127C19.9249 28.1048 19.9643 28.1127 19.9959 28.1284C20.0274 28.152 20.0431 28.1835 20.051 28.2307C20.0431 28.3014 20.0432 28.3565 20.0432 28.3958C20.0274 28.4823 20.0195 28.5531 20.0038 28.616C19.9959 28.671 19.988 28.7103 19.9801 28.7339C19.9643 28.789 19.9407 28.844 19.9171 28.8833C19.8855 28.9227 19.8461 28.9698 19.7988 29.0092C19.7516 29.0563 19.7122 29.0878 19.6727 29.1035C19.6333 29.1193 19.6097 29.135 19.6018 29.135C19.5624 29.135 19.523 29.135 19.4836 29.1428C19.4442 29.1428 19.4127 29.1507 19.3733 29.1507C19.3418 29.135 19.3102 29.1114 19.2866 29.0642C19.263 29.017 19.2393 28.9541 19.2314 28.8755C19.2236 28.8047 19.2551 28.7103 19.326 28.5924C19.3969 28.4744 19.46 28.4037 19.5309 28.3879C19.5624 28.3329 19.6018 28.27 19.6491 28.1992C19.6728 28.1835 19.6964 28.1599 19.7358 28.1442C19.7673 28.1284 19.8146 28.1206 19.8619 28.1127Z" fill="#ED1C24"/>
<path d="M30.2487 0H29.9729V36H30.2487V0Z" fill="#00426D"/>
<path d="M39.5165 24.1887L37.7434 22.152H37.4596V24.1887H36.1278V18.7785H37.4596V20.9253H37.6567L39.5008 18.7785H41.1005L38.7994 21.4914L41.266 24.1887H39.5165Z" fill="#00426D"/>
<path d="M45.3955 24.1887L45.0173 23.2057H42.7319L42.3536 24.1887H40.9193L43.1889 18.7785H44.5602L46.8299 24.1887H45.3955ZM43.8746 20.2804L43.1889 22.0576H44.5759L43.8746 20.2804Z" fill="#00426D"/>
<path d="M53.2133 24.1887H51.9208V21.4914L50.5023 24.1887H49.6827L48.2563 21.4757V24.1887H46.9638V18.7785H48.272L50.0925 22.1284L51.9129 18.7785H53.2133V24.1887Z" fill="#00426D"/>
<path d="M56.4996 18.7785C57.1064 18.7785 57.595 18.9515 57.9496 19.2896C58.3121 19.6278 58.4855 20.0838 58.4855 20.6422C58.4855 21.2162 58.3042 21.6723 57.9338 22.0183C57.5634 22.3643 57.0669 22.5373 56.4365 22.5373H55.1598V24.1966H53.8279V18.7863H56.4996V18.7785ZM56.3498 21.4207C56.6099 21.4207 56.8148 21.3499 56.9645 21.2162C57.1142 21.0747 57.1852 20.8938 57.1852 20.6658C57.1852 20.4456 57.1064 20.2647 56.9566 20.131C56.8069 19.9973 56.602 19.9266 56.3498 19.9266H55.1677V21.4285H56.3498V21.4207Z" fill="#00426D"/>
<path d="M63.7262 21.7509C63.7262 22.5295 63.5056 23.1428 63.0642 23.6146C62.6229 24.0786 62.0397 24.3145 61.3226 24.3145C60.5818 24.3145 59.9907 24.0786 59.5415 23.6146C59.0923 23.1507 58.8638 22.5295 58.8638 21.7509V18.7785H60.1956V21.7509C60.1956 22.1599 60.2981 22.4823 60.503 22.726C60.7079 22.962 60.9837 23.0878 61.3226 23.0878C61.6457 23.0878 61.9057 22.9698 62.1028 22.726C62.2998 22.4901 62.3944 22.1599 62.3944 21.7509V18.7785H63.7262V21.7509Z" fill="#00426D"/>
<path d="M67.9424 19.0695C68.3443 19.3447 68.5965 19.73 68.699 20.2176L67.3908 20.485C67.3435 20.2412 67.2253 20.0524 67.0519 19.9266C66.8707 19.7929 66.6736 19.73 66.4451 19.73C66.2323 19.73 66.0511 19.7851 65.9171 19.8873C65.7831 19.9895 65.7122 20.1232 65.7122 20.2805C65.7122 20.5164 65.8619 20.6658 66.1535 20.7366L67.2804 20.9882C68.2734 21.2084 68.7699 21.7353 68.7699 22.561C68.7699 23.1193 68.5571 23.5439 68.1315 23.8506C67.706 24.1573 67.1701 24.3146 66.5397 24.3146C65.9092 24.3146 65.3733 24.173 64.932 23.8821C64.4907 23.5911 64.2385 23.1901 64.1675 22.6711L65.5467 22.4037C65.6728 22.9384 66.0353 23.2058 66.6185 23.2058C66.8707 23.2058 67.0598 23.1507 67.2016 23.0485C67.3435 22.9463 67.4144 22.8126 67.4144 22.6475C67.4144 22.5217 67.375 22.4194 67.3041 22.3408C67.2331 22.2621 67.0992 22.2071 66.91 22.1678L65.7752 21.924C64.8059 21.7038 64.3173 21.177 64.3173 20.3591C64.3173 19.8401 64.5143 19.4234 64.9083 19.1167C65.3024 18.81 65.8225 18.6527 66.4609 18.6527C67.044 18.6606 67.5405 18.7943 67.9424 19.0695Z" fill="#00426D"/>
<path d="M73.5535 19.9423V24.1887H72.2295V19.9423H70.4721V18.7785H75.3109V19.9423H73.5535Z" fill="#00426D"/>
<path d="M79.0622 24.1887L78.6839 23.2057H76.3985L76.0202 24.1887H74.5859L76.8556 18.7785H78.2268L80.4965 24.1887H79.0622ZM77.5412 20.2804L76.8556 22.0576H78.2426L77.5412 20.2804Z" fill="#00426D"/>
<path d="M84.1058 19.0695C84.5078 19.3447 84.76 19.73 84.8624 20.2176L83.5542 20.485C83.5069 20.2412 83.3887 20.0524 83.2153 19.9266C83.0341 19.7929 82.837 19.73 82.6085 19.73C82.3957 19.73 82.2144 19.7851 82.0805 19.8873C81.9465 19.9895 81.8756 20.1232 81.8756 20.2805C81.8756 20.5164 82.0253 20.6658 82.3169 20.7366L83.4439 20.9882C84.4368 21.2084 84.9333 21.7353 84.9333 22.561C84.9333 23.1193 84.7205 23.5439 84.295 23.8506C83.8694 24.1573 83.3335 24.3146 82.7031 24.3146C82.0726 24.3146 81.5367 24.173 81.0954 23.8821C80.6541 23.5911 80.4019 23.1901 80.331 22.6711L81.7101 22.4037C81.8362 22.9384 82.1987 23.2058 82.7819 23.2058C83.0341 23.2058 83.2232 23.1507 83.3651 23.0485C83.5069 22.9463 83.5778 22.8126 83.5778 22.6475C83.5778 22.5217 83.5384 22.4194 83.4675 22.3408C83.3966 22.2621 83.2626 22.2071 83.0735 22.1678L81.9386 21.924C80.9693 21.7038 80.4807 21.177 80.4807 20.3591C80.4807 19.8401 80.6777 19.4234 81.0717 19.1167C81.4658 18.81 81.9859 18.6527 82.6243 18.6527C83.2153 18.6606 83.7118 18.7943 84.1058 19.0695Z" fill="#00426D"/>
<path d="M86.7223 18.7785H85.3904V24.1887H86.7223V18.7785Z" fill="#00426D"/>
<path d="M90.7336 24.1887L88.9604 22.152H88.6767V24.1887H87.3448V18.7785H88.6767V20.9253H88.8737L90.7178 18.7785H92.3176L90.0164 21.4914L92.4831 24.1887H90.7336Z" fill="#00426D"/>
<path d="M98.8586 24.1887H97.5662V21.4914L96.1476 24.1887H95.3202L93.8938 21.4757V24.1887H92.6013V18.7785H93.9174L95.7379 22.1284L97.5583 18.7785H98.8586V24.1887Z" fill="#00426D"/>
<path d="M103.477 24.1887L103.098 23.2057H100.813L100.435 24.1887H99.0005L101.27 18.7785H102.641L104.911 24.1887H103.477ZM101.956 20.2804L101.27 22.0576H102.657L101.956 20.2804Z" fill="#00426D"/>
<path d="M109.056 24.1887H105.045V18.7785H106.385V23.0249H109.056V24.1887Z" fill="#00426D"/>
<path d="M113.477 24.1887L113.099 23.2057H110.814L110.435 24.1887H109.001L111.271 18.7785H112.642L114.912 24.1887H113.477ZM111.956 20.2804L111.271 22.0576H112.658L111.956 20.2804Z" fill="#00426D"/>
<path d="M117.197 24.1887H115.842V22.5059L113.745 18.7785H115.203L116.535 21.1533L117.859 18.7785H119.349L117.197 22.4901V24.1887Z" fill="#00426D"/>
<path d="M122.666 24.1887L122.288 23.2057H120.003L119.624 24.1887H118.19L120.46 18.7785H121.831L124.101 24.1887H122.666ZM121.138 20.2804L120.452 22.0576H121.839L121.138 20.2804Z" fill="#00426D"/>
</svg>
